<svg xmlns="http://www.w3.org/2000/svg" viewBox="0 0 64 64">
  <circle cx="32" cy="32" r="30" fill="#B91C1C"/>
  <rect x="12" y="28" width="40" height="6" rx="2" fill="#F59E0B"/>
  <rect x="15" y="34" width="3" height="14" fill="#F59E0B"/>
  <rect x="46" y="34" width="3" height="14" fill="#F59E0B"/>
  <rect x="18" y="31" width="2" height="8" fill="#FCD34D"/>
  <rect x="24" y="31" width="2" height="8" fill="#FCD34D"/>
  <rect x="30" y="31" width="2" height="8" fill="#FCD34D"/>
  <rect x="36" y="31" width="2" height="8" fill="#FCD34D"/>
  <rect x="42" y="31" width="2" height="8" fill="#FCD34D"/>
  <path d="M22 24c0-4 2-8 4-10-2 4 0 8 0 10" stroke="#F59E0B" stroke-width="2" fill="none"/>
  <path d="M32 20c0-4 2-8 4-10-2 4 0 8 0 10" stroke="#EF4444" stroke-width="2" fill="none"/>
  <path d="M42 24c0-4 2-8 4-10-2 4 0 8 0 10" stroke="#F59E0B" stroke-width="2" fill="none"/>
</svg>
